<?xml version="1.0" encoding="UTF-8" ?>
<!DOCTYPE svg PUBLIC "-//W3C//DTD SVG 1.1//EN" "http://www.w3.org/Graphics/SVG/1.1/DTD/svg11.dtd">
<svg width="598pt" height="357pt" viewBox="0 0 598 357" version="1.1" xmlns="http://www.w3.org/2000/svg">
<g id="#e1edf9ff">
<path fill="#e1edf9" stroke="#e1edf9" stroke-width="0.09375" opacity="1.00" d=" M 244.56 82.68 C 253.04 77.56 261.49 72.39 269.94 67.24 C 278.10 73.33 286.66 78.91 294.67 85.18 C 301.37 99.61 307.28 114.43 313.83 128.94 C 324.03 132.97 334.20 137.08 344.34 141.28 C 347.16 130.65 349.88 119.99 352.64 109.34 C 358.76 105.92 364.94 102.61 371.06 99.18 C 377.42 110.77 383.51 122.53 390.06 134.00 C 398.90 140.21 408.21 145.77 417.22 151.75 C 418.35 152.36 418.92 153.53 419.50 154.63 C 425.53 166.84 431.67 178.99 437.73 191.19 C 438.84 193.40 439.79 195.76 441.49 197.60 C 448.51 205.28 455.68 212.82 462.67 220.53 C 466.68 216.25 470.55 211.85 474.50 207.51 C 480.60 211.73 486.68 215.98 492.76 220.23 C 494.70 221.46 495.32 223.83 496.38 225.74 C 498.87 231.05 501.84 236.15 504.11 241.56 C 505.11 247.72 506.09 253.91 506.69 260.13 C 506.55 260.42 506.28 261.01 506.14 261.30 C 499.13 253.51 491.83 245.98 484.81 238.20 C 483.49 236.83 482.15 235.05 480.03 235.20 C 470.36 234.72 460.70 233.83 451.03 233.57 C 450.31 235.90 449.62 238.24 449.00 240.60 C 436.58 227.99 424.81 214.75 412.39 202.15 C 410.45 205.57 408.54 209.01 406.52 212.39 C 401.31 206.61 396.83 200.21 391.78 194.29 C 383.60 196.12 375.55 198.51 367.41 200.49 C 365.65 201.07 363.93 200.20 362.32 199.58 C 355.32 196.59 348.29 193.69 341.25 190.79 C 337.65 189.29 334.89 186.45 331.87 184.07 C 328.44 181.18 324.82 178.51 321.44 175.57 C 320.21 174.64 319.64 173.19 319.28 171.75 C 317.55 165.16 315.88 158.56 314.08 151.99 C 313.68 149.36 311.03 148.29 309.10 146.91 C 301.34 142.06 293.96 136.62 286.08 131.97 C 293.08 139.15 300.41 146.01 307.50 153.09 C 306.46 157.19 305.19 161.24 303.88 165.27 C 296.09 163.34 288.55 160.49 280.70 158.79 C 285.99 164.05 291.69 168.89 297.28 173.83 C 302.30 176.82 308.47 176.87 313.79 179.17 C 316.17 181.55 317.53 184.74 319.45 187.48 C 321.18 190.46 323.71 193.13 324.32 196.63 C 320.89 204.10 317.67 211.66 314.28 219.15 C 313.75 220.50 312.93 221.89 313.28 223.40 C 315.42 236.63 318.29 249.75 320.09 263.03 L 319.32 262.92 C 313.08 254.83 305.48 247.85 299.34 239.71 C 294.64 229.62 290.44 219.29 285.95 209.11 C 284.97 206.90 283.52 204.96 281.95 203.15 C 275.79 195.91 269.84 188.49 263.69 181.25 C 261.55 178.53 257.42 180.09 254.81 178.34 C 251.55 170.58 248.92 162.54 245.88 154.68 C 243.36 154.70 240.84 154.72 238.32 154.77 C 236.18 150.83 234.29 146.76 232.14 142.83 C 232.36 151.70 233.65 160.50 234.18 169.36 C 229.47 167.65 224.91 165.58 220.20 163.88 C 223.25 171.08 226.35 178.27 229.49 185.42 C 230.24 187.50 232.64 187.96 234.35 188.98 C 231.08 191.59 227.71 194.09 224.74 197.04 C 224.35 197.29 223.57 197.79 223.18 198.03 C 218.81 210.44 214.21 222.76 209.76 235.13 C 208.72 235.52 207.68 235.92 206.64 236.31 C 206.63 242.81 207.79 249.23 207.91 255.72 C 203.01 251.06 198.78 245.75 194.09 240.89 C 192.34 238.84 189.80 236.97 189.87 234.00 C 189.19 222.70 188.77 211.39 187.97 200.10 C 175.66 201.84 163.36 203.69 151.04 205.35 C 149.79 205.56 148.50 205.68 147.33 206.21 C 143.72 209.38 141.42 213.80 137.73 216.88 C 133.19 218.04 128.36 217.46 123.87 218.82 C 115.88 226.58 109.01 235.47 101.00 243.23 C 108.25 229.14 115.80 215.21 123.09 201.14 C 128.21 201.44 133.33 201.63 138.41 202.32 C 148.86 184.41 158.98 166.31 169.34 148.34 C 174.61 153.27 180.04 158.03 185.18 163.10 C 188.00 158.85 190.30 154.29 193.01 149.97 C 193.62 148.85 194.79 148.26 195.84 147.62 C 203.18 143.43 210.47 139.15 217.82 134.96 C 218.83 134.25 220.21 133.78 220.65 132.50 C 227.84 116.69 234.95 100.83 242.15 85.01 C 242.56 83.89 243.61 83.28 244.56 82.68 Z" />
</g>
<g id="#a1b6ccff">
<path fill="#a1b6cc" stroke="#a1b6cc" stroke-width="0.09375" opacity="1.00" d=" M 286.08 131.97 C 293.96 136.62 301.34 142.06 309.10 146.91 C 311.03 148.29 313.68 149.36 314.08 151.99 C 315.88 158.56 317.55 165.16 319.28 171.75 C 319.64 173.19 320.21 174.64 321.44 175.57 C 324.82 178.51 328.44 181.18 331.87 184.07 C 334.89 186.45 337.65 189.29 341.25 190.79 C 348.29 193.69 355.32 196.59 362.32 199.58 C 363.93 200.20 365.65 201.07 367.41 200.49 C 375.55 198.51 383.60 196.12 391.78 194.29 C 396.83 200.21 401.31 206.61 406.52 212.39 C 408.54 209.01 410.45 205.57 412.39 202.15 C 424.81 214.75 436.58 227.99 449.00 240.60 C 449.62 238.24 450.31 235.90 451.03 233.57 C 460.70 233.83 470.36 234.72 480.03 235.20 C 482.15 235.05 483.49 236.83 484.81 238.20 C 491.83 245.98 499.13 253.51 506.14 261.30 C 506.28 261.01 506.55 260.42 506.69 260.13 C 508.83 265.46 513.88 269.00 517.28 273.56 C 511.31 271.01 505.60 267.91 499.71 265.19 C 497.37 264.02 494.64 263.13 493.22 260.77 C 489.11 255.01 484.89 249.32 480.78 243.56 C 476.97 246.97 473.25 250.50 469.21 253.64 C 455.88 249.49 442.44 245.75 429.04 241.87 C 424.64 244.25 420.35 246.83 415.95 249.21 C 403.75 233.80 391.69 218.28 379.52 202.85 C 377.38 206.81 375.47 210.89 373.39 214.88 C 357.34 208.48 341.20 202.32 325.20 195.83 C 324.98 196.03 324.54 196.43 324.32 196.63 C 323.71 193.13 321.18 190.46 319.45 187.48 C 317.53 184.74 316.17 181.55 313.79 179.17 C 308.47 176.87 302.30 176.82 297.28 173.83 C 291.69 168.89 285.99 164.05 280.70 158.79 C 288.55 160.49 296.09 163.34 303.88 165.27 C 305.19 161.24 306.46 157.19 307.50 153.09 C 300.41 146.01 293.08 139.15 286.08 131.97 Z" />
<path fill="#a1b6cc" stroke="#a1b6cc" stroke-width="0.09375" opacity="1.00" d=" M 232.14 142.83 C 234.29 146.76 236.18 150.83 238.32 154.77 C 240.84 154.72 243.36 154.70 245.88 154.68 C 248.92 162.54 251.55 170.58 254.81 178.34 C 257.42 180.09 261.55 178.53 263.69 181.25 C 269.84 188.49 275.79 195.91 281.95 203.15 C 283.52 204.96 284.97 206.90 285.95 209.11 C 290.44 219.29 294.64 229.62 299.34 239.71 C 305.48 247.85 313.08 254.83 319.32 262.92 C 313.65 262.41 308.26 260.46 302.74 259.20 C 295.76 244.50 288.81 229.78 281.93 215.03 C 280.76 212.37 278.41 210.57 276.39 208.60 C 269.17 201.89 262.06 195.07 254.95 188.24 C 251.97 189.96 249.03 191.74 246.05 193.47 C 244.47 193.06 242.89 191.98 241.21 192.45 C 235.69 193.88 230.37 196.03 224.74 197.04 C 227.71 194.09 231.08 191.59 234.35 188.98 C 232.64 187.96 230.24 187.50 229.49 185.42 C 226.35 178.27 223.25 171.08 220.20 163.88 C 224.91 165.58 229.47 167.65 234.18 169.36 C 233.65 160.50 232.36 151.70 232.14 142.83 Z" />
<path fill="#a1b6cc" stroke="#a1b6cc" stroke-width="0.09375" opacity="1.00" d=" M 151.04 205.35 C 163.36 203.69 175.66 201.84 187.97 200.10 C 188.77 211.39 189.19 222.70 189.87 234.00 C 189.80 236.97 192.34 238.84 194.09 240.89 C 198.78 245.75 203.01 251.06 207.91 255.72 C 207.79 249.23 206.63 242.81 206.64 236.31 C 207.68 235.92 208.72 235.52 209.76 235.13 C 209.62 244.92 211.62 254.63 211.87 264.42 C 204.93 257.62 198.34 250.47 191.42 243.65 C 190.11 242.31 188.63 241.00 188.08 239.15 C 184.21 227.74 180.44 216.29 176.52 204.90 C 166.10 208.57 155.76 212.47 145.35 216.17 C 142.33 217.20 140.06 219.53 137.60 221.46 C 129.62 227.89 121.67 234.35 113.65 240.73 C 111.20 242.67 109.41 245.26 107.45 247.66 C 101.99 254.41 96.47 261.10 91.06 267.90 C 94.36 259.67 97.49 251.36 101.00 243.23 C 109.01 235.47 115.88 226.58 123.87 218.82 C 128.36 217.46 133.19 218.04 137.73 216.88 C 141.42 213.80 143.72 209.38 147.33 206.21 C 148.50 205.68 149.79 205.56 151.04 205.35 Z" />
</g>
<g id="#745739ff">
<path fill="#745739" stroke="#745739" stroke-width="0.09375" opacity="1.00" d=" M 246.05 193.47 C 249.03 191.74 251.97 189.96 254.95 188.24 C 262.06 195.07 269.17 201.89 276.39 208.60 C 278.41 210.57 280.76 212.37 281.93 215.03 C 288.81 229.78 295.76 244.50 302.74 259.20 C 308.26 260.46 313.65 262.41 319.32 262.92 L 320.09 263.03 C 318.29 249.75 315.42 236.63 313.28 223.40 C 312.93 221.89 313.75 220.50 314.28 219.15 C 317.67 211.66 320.89 204.10 324.32 196.63 C 324.54 196.43 324.98 196.03 325.20 195.83 C 341.20 202.32 357.34 208.48 373.39 214.88 C 375.47 210.89 377.38 206.81 379.52 202.85 C 391.69 218.28 403.75 233.80 415.95 249.21 C 420.35 246.83 424.64 244.25 429.04 241.87 C 442.44 245.75 455.88 249.49 469.21 253.64 C 473.25 250.50 476.97 246.97 480.78 243.56 C 484.89 249.32 489.11 255.01 493.22 260.77 C 494.64 263.13 497.37 264.02 499.71 265.19 C 505.60 267.91 511.31 271.01 517.28 273.56 C 520.51 277.21 523.78 280.84 526.95 284.55 C 525.10 284.51 523.27 284.18 521.56 283.46 C 514.98 280.88 508.19 278.87 501.53 276.50 C 498.95 275.63 496.19 274.55 493.47 275.43 C 483.28 278.28 473.27 281.86 462.98 284.30 C 457.22 280.45 453.51 274.21 448.43 269.57 C 444.31 267.13 439.85 265.01 435.25 263.70 C 429.03 266.73 423.64 271.25 417.68 274.75 C 416.13 275.92 414.41 274.67 412.91 274.13 C 406.08 270.90 399.10 268.02 392.23 264.88 C 390.34 264.11 388.40 262.98 386.29 263.33 C 378.51 264.65 371.07 267.83 363.26 268.75 C 354.97 265.63 346.97 261.71 338.83 258.21 C 329.01 266.77 319.68 275.87 309.98 284.56 C 305.61 281.84 302.14 277.98 298.06 274.88 C 293.64 271.57 292.00 266.09 289.52 261.40 C 286.79 256.11 284.27 250.72 281.56 245.42 C 268.36 244.03 255.14 242.88 241.96 241.37 C 240.44 241.29 238.36 240.73 237.59 242.51 C 230.59 253.12 223.37 263.59 215.99 273.95 C 213.77 277.17 211.70 280.54 208.98 283.39 C 203.44 278.45 197.75 273.70 192.17 268.81 C 185.57 262.58 177.63 258.04 170.53 252.43 C 166.61 249.90 163.15 246.63 159.05 244.41 C 150.01 249.51 141.15 254.96 132.11 260.06 C 129.44 261.63 126.45 263.00 124.72 265.69 C 120.24 272.39 116.12 279.32 111.83 286.14 C 105.56 286.33 99.29 285.93 93.03 286.09 C 89.98 286.20 86.91 286.00 83.95 285.26 C 86.57 279.58 88.59 273.64 91.06 267.90 C 96.47 261.10 101.99 254.41 107.45 247.66 C 109.41 245.26 111.20 242.67 113.65 240.73 C 121.67 234.35 129.62 227.89 137.60 221.46 C 140.06 219.53 142.33 217.20 145.35 216.17 C 155.76 212.47 166.10 208.57 176.52 204.90 C 180.44 216.29 184.21 227.74 188.08 239.15 C 188.63 241.00 190.11 242.31 191.42 243.65 C 198.34 250.47 204.93 257.62 211.87 264.42 C 211.62 254.63 209.62 244.92 209.76 235.13 C 214.21 222.76 218.81 210.44 223.18 198.03 C 223.57 197.79 224.35 197.29 224.74 197.04 C 230.37 196.03 235.69 193.88 241.21 192.45 C 242.89 191.98 244.47 193.06 246.05 193.47 Z" />
</g>
<g id="#653614ff">
<path fill="#653614" stroke="#653614" stroke-width="0.09375" opacity="1.00" d=" M 237.59 242.51 C 238.36 240.73 240.44 241.29 241.96 241.37 C 255.14 242.88 268.36 244.03 281.56 245.42 C 284.27 250.72 286.79 256.11 289.52 261.40 C 292.00 266.09 293.64 271.57 298.06 274.88 C 302.14 277.98 305.61 281.84 309.98 284.56 C 319.68 275.87 329.01 266.77 338.83 258.21 C 346.97 261.71 354.97 265.63 363.26 268.75 C 371.07 267.83 378.51 264.65 386.29 263.33 C 388.40 262.98 390.34 264.11 392.23 264.88 C 399.10 268.02 406.08 270.90 412.91 274.13 C 414.41 274.67 416.13 275.92 417.68 274.75 C 423.64 271.25 429.03 266.73 435.25 263.70 C 439.85 265.01 444.31 267.13 448.43 269.57 C 453.51 274.21 457.22 280.45 462.98 284.30 C 473.27 281.86 483.28 278.28 493.47 275.43 C 496.19 274.55 498.95 275.63 501.53 276.50 C 508.19 278.87 514.98 280.88 521.56 283.46 C 523.27 284.18 525.10 284.51 526.95 284.55 C 533.47 292.93 542.32 298.91 550.48 305.55 C 545.95 308.02 541.59 310.78 537.02 313.17 C 535.75 313.95 534.25 313.28 532.94 313.06 C 520.21 309.72 507.41 306.66 494.68 303.32 C 486.75 300.89 478.36 303.05 470.28 301.67 C 460.47 299.96 450.64 298.35 440.83 296.58 C 439.11 296.41 437.23 295.70 435.62 296.66 C 429.32 299.92 423.49 304.10 417.06 307.08 C 408.11 308.81 398.99 309.56 389.99 311.07 C 386.81 311.41 383.34 312.59 380.33 310.92 C 372.82 307.33 365.28 303.80 357.74 300.28 C 356.02 299.14 354.05 299.94 352.26 300.35 C 346.22 302.01 340.18 303.65 334.14 305.28 C 331.43 306.12 328.60 305.49 325.88 305.05 C 314.87 303.15 303.82 301.47 292.83 299.51 C 287.56 298.37 282.77 301.51 277.87 302.86 C 275.89 303.45 273.72 304.46 271.70 303.44 C 259.45 298.49 247.21 293.50 234.95 288.56 C 229.74 291.04 224.75 293.98 219.59 296.57 C 216.95 298.12 213.85 297.25 211.00 297.04 C 201.01 295.97 191.00 295.01 181.00 294.00 C 177.74 293.60 174.64 294.85 171.57 295.75 C 159.52 299.39 147.41 302.86 135.37 306.54 C 133.29 307.14 131.10 307.78 128.94 307.17 C 121.06 305.44 113.20 303.67 105.35 301.82 C 100.89 300.57 96.47 302.52 92.10 303.22 C 78.56 305.81 65.13 309.02 51.52 311.20 C 62.23 302.42 73.14 293.90 83.95 285.26 C 86.91 286.00 89.98 286.20 93.03 286.09 C 99.29 285.93 105.56 286.33 111.83 286.14 C 116.12 279.32 120.24 272.39 124.72 265.69 C 126.45 263.00 129.44 261.63 132.11 260.06 C 141.15 254.96 150.01 249.51 159.05 244.41 C 163.15 246.63 166.61 249.90 170.53 252.43 C 177.63 258.04 185.57 262.58 192.17 268.81 C 197.75 273.70 203.44 278.45 208.98 283.39 C 211.70 280.54 213.77 277.17 215.99 273.95 C 223.37 263.59 230.59 253.12 237.59 242.51 Z" />
<path fill="#653614" stroke="#653614" stroke-width="0.09375" opacity="1.00" d=" M 585.42 339.22 C 589.70 345.04 593.58 351.14 597.81 357.00 L 1.40 357.00 C 3.71 352.42 5.78 347.72 8.02 343.11 C 9.99 343.21 11.97 343.30 13.94 343.31 C 58.71 343.26 103.47 342.44 148.23 342.95 C 158.84 344.32 169.57 344.37 180.22 345.34 C 205.84 346.79 231.44 348.61 257.06 350.10 C 259.69 350.27 262.34 350.18 264.98 350.02 C 321.99 347.76 378.99 345.40 435.99 343.15 C 442.90 342.41 449.91 343.10 456.78 341.91 C 470.19 341.51 483.62 341.57 497.04 341.50 C 526.11 341.53 555.18 341.27 584.26 341.24 C 584.55 340.74 585.13 339.73 585.42 339.22 Z" />
</g>
<g id="#4d873eff">
<path fill="#4d873e" stroke="#4d873e" stroke-width="0.09375" opacity="1.00" d=" M 219.59 296.57 C 224.75 293.98 229.74 291.04 234.95 288.56 C 247.21 293.50 259.45 298.49 271.70 303.44 C 273.72 304.46 275.89 303.45 277.87 302.86 C 282.77 301.51 287.56 298.37 292.83 299.51 C 303.82 301.47 314.87 303.15 325.88 305.05 C 328.60 305.49 331.43 306.12 334.14 305.28 C 340.18 303.65 346.22 302.01 352.26 300.35 C 354.05 299.94 356.02 299.14 357.74 300.28 C 365.28 303.80 372.82 307.33 380.33 310.92 C 383.34 312.59 386.81 311.41 389.99 311.07 C 398.99 309.56 408.11 308.81 417.06 307.08 C 423.49 304.10 429.32 299.92 435.62 296.66 C 437.23 295.70 439.11 296.41 440.83 296.58 C 450.64 298.35 460.47 299.96 470.28 301.67 C 478.36 303.05 486.75 300.89 494.68 303.32 C 507.41 306.66 520.21 309.72 532.94 313.06 C 534.25 313.28 535.75 313.95 537.02 313.17 C 541.59 310.78 545.95 308.02 550.48 305.55 C 554.08 308.30 558.00 310.61 561.50 313.50 C 564.46 316.18 567.25 319.05 570.13 321.82 C 567.98 324.48 565.66 327.02 563.00 329.17 C 542.29 323.82 521.57 318.48 500.84 313.21 C 496.59 312.20 492.21 312.02 487.88 311.62 C 475.27 310.64 462.68 309.18 450.03 308.77 C 446.66 308.62 443.67 310.38 440.74 311.79 C 433.16 315.62 425.44 319.15 417.77 322.81 C 414.34 324.39 410.97 326.77 407.01 326.41 C 392.33 325.62 377.66 324.73 362.97 324.18 C 351.28 324.22 339.68 322.60 328.01 322.32 C 310.99 321.45 293.98 320.40 276.94 319.90 C 272.16 319.72 267.50 320.90 262.86 321.87 C 250.66 324.50 238.39 326.81 226.19 329.41 C 222.84 330.12 219.42 329.72 216.05 329.47 C 190.39 327.39 164.71 325.50 139.05 323.38 C 130.02 322.70 121.03 324.13 112.03 324.45 C 82.67 326.46 53.29 328.22 23.94 330.32 C 22.25 330.26 20.58 330.09 18.92 329.79 C 29.71 323.47 40.72 317.51 51.52 311.20 C 65.13 309.02 78.56 305.81 92.10 303.22 C 96.47 302.52 100.89 300.57 105.35 301.82 C 113.20 303.67 121.06 305.44 128.94 307.17 C 131.10 307.78 133.29 307.14 135.37 306.54 C 147.41 302.86 159.52 299.39 171.57 295.75 C 174.64 294.85 177.74 293.60 181.00 294.00 C 191.00 295.01 201.01 295.97 211.00 297.04 C 213.85 297.25 216.95 298.12 219.59 296.57 Z" />
<path fill="#4d873e" stroke="#4d873e" stroke-width="0.09375" opacity="1.00" d=" M 205.94 342.53 C 216.29 342.86 226.62 341.67 236.97 341.99 C 299.32 341.97 361.67 341.79 424.02 341.70 C 434.94 341.80 445.87 341.26 456.78 341.91 C 449.91 343.10 442.90 342.41 435.99 343.15 C 378.99 345.40 321.99 347.76 264.98 350.02 C 262.34 350.18 259.69 350.27 257.06 350.10 C 231.44 348.61 205.84 346.79 180.22 345.34 C 169.57 344.37 158.84 344.32 148.23 342.95 C 167.45 342.29 186.71 342.71 205.94 342.53 Z" />
</g>
<g id="#7cb74cff">
<path fill="#7cb74c" stroke="#7cb74c" stroke-width="0.09375" opacity="1.00" d=" M 440.74 311.79 C 443.67 310.38 446.66 308.62 450.03 308.77 C 462.68 309.18 475.27 310.64 487.88 311.62 C 492.21 312.02 496.59 312.20 500.84 313.21 C 521.57 318.48 542.29 323.82 563.00 329.17 C 565.66 327.02 567.98 324.48 570.13 321.82 C 572.35 323.97 574.61 326.10 576.44 328.61 C 579.18 332.36 582.79 335.37 585.42 339.22 C 585.13 339.73 584.55 340.74 584.26 341.24 C 555.18 341.27 526.11 341.53 497.04 341.50 C 483.62 341.57 470.19 341.51 456.78 341.91 C 445.87 341.26 434.94 341.80 424.02 341.70 C 361.67 341.79 299.32 341.97 236.97 341.99 C 226.62 341.67 216.29 342.86 205.94 342.53 C 186.71 342.71 167.45 342.29 148.23 342.95 C 103.47 342.44 58.71 343.26 13.94 343.31 C 11.97 343.30 9.99 343.21 8.02 343.11 C 8.20 340.72 8.16 338.33 8.14 335.95 C 11.69 333.82 15.30 331.80 18.92 329.79 C 20.58 330.09 22.25 330.26 23.94 330.32 C 53.29 328.22 82.67 326.46 112.03 324.45 C 121.03 324.13 130.02 322.70 139.05 323.38 C 164.71 325.50 190.39 327.39 216.05 329.47 C 219.42 329.72 222.84 330.12 226.19 329.41 C 238.39 326.81 250.66 324.50 262.86 321.87 C 267.50 320.90 272.16 319.72 276.94 319.90 C 293.98 320.40 310.99 321.45 328.01 322.32 C 339.68 322.60 351.28 324.22 362.97 324.18 C 377.66 324.73 392.33 325.62 407.01 326.41 C 410.97 326.77 414.34 324.39 417.77 322.81 C 425.44 319.15 433.16 315.62 440.74 311.79 Z" />
</g>
</svg>
